<?xml version="1.0" encoding="UTF-8"?>
<svg version="1.1" xmlns="http://www.w3.org/2000/svg" width="152" height="134">
<path d="M0 0 C1.32421875 1.70703125 1.32421875 1.70703125 2.6875 3.8125 C5.86429512 8.13884445 8.76902799 10.60040883 14 12 C20.39328315 12.82716332 26.48767047 12.7675904 32.17578125 9.48828125 C35.77383853 6.55282125 38.39433041 2.81079177 41 -1 C42.80017578 -0.22076172 42.80017578 -0.22076172 44.63671875 0.57421875 C53.65624147 4.38370093 62.58304599 7.68831895 72.125 9.9375 C72.96377686 10.13625732 73.80255371 10.33501465 74.66674805 10.53979492 C79.7872361 11.68190556 84.83060837 12.3603099 90.06201172 12.75610352 C92 13 92 13 93 14 C93.125 17.5 93.125 17.5 93 21 C92 22 92 22 89.5078125 22.0546875 C75.5338194 21.31241997 61.97151306 17.8870293 49.34765625 11.8203125 C46.73071951 10.90590865 45.55760349 11.0386734 43 12 C49.63064591 15.78680229 55.92458959 17.9195209 63.41015625 19.421875 C66 20 66 20 67 21 C67.04092937 23.33297433 67.04241723 25.66705225 67 28 C57.32455627 28.65596229 48.41270799 26.31014839 40.1875 21.125 C37.81190016 19.68828613 36.60029794 18.9646253 33.8125 19.12890625 C31.84396354 19.6463708 29.91756777 20.31747588 28 21 C26.68 21 25.36 21 24 21 C24 35.52 24 50.04 24 65 C18 65 18 65 16 64 C16 49.81 16 35.62 16 21 C13.69 20.67 11.38 20.34 9 20 C8.16082031 19.74734375 7.32164063 19.4946875 6.45703125 19.234375 C2.8123327 18.886709 0.8223032 20.43763434 -2.3125 22.25 C-7.69425978 25.19067698 -12.77257015 26.92944303 -18.8125 28 C-19.86207886 28.1861084 -19.86207886 28.1861084 -20.93286133 28.37597656 C-22.61360607 28.64288761 -24.30674529 28.82960959 -26 29 C-27 28 -27 28 -27.09765625 26.15234375 C-27.06510417 24.1015625 -27.03255208 22.05078125 -27 20 C-25.38931641 19.61908203 -25.38931641 19.61908203 -23.74609375 19.23046875 C-22.30981802 18.8831341 -20.87362444 18.53545967 -19.4375 18.1875 C-18.38079102 17.9390332 -18.38079102 17.9390332 -17.30273438 17.68554688 C-12.61872413 16.54152594 -8.30440904 15.19929265 -4 13 C-3.67 12.01 -3.34 11.02 -3 10 C-3.89755005 10.33994995 -3.89755005 10.33994995 -4.81323242 10.68676758 C-20.42400311 16.56797889 -35.07712557 21.90217992 -52 22 C-53 21 -53 21 -53.125 17.5 C-53 14 -53 14 -52 13 C-49.91972204 12.74458126 -47.83536355 12.52239049 -45.75 12.3125 C-31.74403892 10.63881004 -17.89504923 6.54740767 -5.3984375 0.00390625 C-3 -1 -3 -1 0 0 Z " fill="#DB2149" transform="translate(56,3)"/>
<path d="M0 0 C3.125 2.25 3.125 2.25 5 5 C5 6.32 5 7.64 5 9 C2.36 9.33 -0.28 9.66 -3 10 C-3 9.34 -3 8.68 -3 8 C-7.89562693 9.87702327 -7.89562693 9.87702327 -12 13 C-13.26519328 16.79557983 -13.1505337 19.38032459 -11.625 23 C-8.163428 29.10728528 -3.04847646 31.99631634 3.5 34.15234375 C8.4120607 35.48604876 13.33484817 36.64892559 18.31640625 37.69921875 C25.85332085 39.36446297 32.60809391 41.5851381 37.4765625 47.921875 C39.43212876 51.35409334 40 53.63359423 40 57.625 C38.07994151 64.10519742 34.43977335 68.22546339 29 72 C25.55872224 72.67146883 24.29532844 72.1575085 21.1875 70.5 C20.465625 70.005 19.74375 69.51 19 69 C20.1728427 65.48147191 20.83086877 65.25274673 23.9375 63.5 C26.96692226 61.78461026 27.99489922 61.00765117 30 58 C30.31708771 54.97919865 30.31708771 54.97919865 29 52 C23.76015708 48.23328318 17.43782928 46.9649638 11.25 45.625 C3.12638211 43.7258561 -3.85256589 41.42403575 -11 37 C-11.62003906 36.62359375 -12.24007812 36.2471875 -12.87890625 35.859375 C-18.03957927 32.186114 -21.17098976 25.95762282 -22.44921875 19.85546875 C-22.75260652 14.55141352 -21.06349155 10.20581043 -18 6 C-12.90612763 0.48359444 -7.45956667 -1.72734391 0 0 Z " fill="#D9224A" transform="translate(63,33)"/>
<path d="M0 0 C1.17755859 0.16048828 1.17755859 0.16048828 2.37890625 0.32421875 C3.55259766 0.47310547 3.55259766 0.47310547 4.75 0.625 C6.94140625 1.01171875 6.94140625 1.01171875 9.94140625 2.01171875 C8.94140625 5.01171875 8.94140625 5.01171875 5.44140625 6.82421875 C2.53512497 8.39745366 2.05347973 8.74834608 0.69140625 11.94921875 C0.68152776 15.14164785 0.68152776 15.14164785 2.87890625 17.63671875 C8.23708236 21.792039 13.60907994 23.94880787 20.06640625 25.94921875 C25.10118654 27.55958463 28.26083901 29.23167672 31.94140625 33.01171875 C33.68123352 36.49137329 33.52699196 40.21528104 32.94140625 44.01171875 C29.45996297 48.58732992 24.18389145 52.53720872 18.37890625 53.38671875 C12.59126683 52.7553399 7.75021948 50.03978207 3.87890625 45.69921875 C2.54990064 41.88940267 2.61573229 39.05007582 2.94140625 35.01171875 C3.60140625 34.02171875 4.26140625 33.03171875 4.94140625 32.01171875 C7.25140625 32.67171875 9.56140625 33.33171875 11.94140625 34.01171875 C11.94140625 36.67838542 11.94140625 39.34505208 11.94140625 42.01171875 C12.60140625 42.01171875 13.26140625 42.01171875 13.94140625 42.01171875 C13.94140625 40.03171875 13.94140625 38.05171875 13.94140625 36.01171875 C14.93140625 35.51671875 14.93140625 35.51671875 15.94140625 35.01171875 C17.97285266 35.9461841 19.97674212 36.94396651 21.94140625 38.01171875 C21.94140625 39.33171875 21.94140625 40.65171875 21.94140625 42.01171875 C22.60140625 42.01171875 23.26140625 42.01171875 23.94140625 42.01171875 C24.07581403 39.5825201 24.07581403 39.5825201 22.94140625 37.01171875 C20.23121 35.75699827 17.78172658 34.86154259 14.94140625 34.01171875 C5.82479239 31.18704103 -2.75216194 27.6964246 -7.68359375 19.01171875 C-9.35231356 15.04659554 -9.29503621 12.18471205 -8.05859375 8.01171875 C-3.38376079 0.0192624 -3.38376079 0.0192624 0 0 Z " fill="#DE1F48" transform="translate(58.05859375,75.98828125)"/>
<path d="M0 0 C5.27549215 1.11612391 8.82017549 4.14560109 11.94921875 8.44140625 C14.53189846 13.01076265 15.56413132 17.3527828 14.56640625 22.54296875 C12.69383915 27.94036803 9.8704319 31.76382428 5.56640625 35.54296875 C4.74140625 36.28546875 3.91640625 37.02796875 3.06640625 37.79296875 C0.29053987 39.73607522 -1.0503955 40.46428972 -4.43359375 40.54296875 C-7.18750173 39.73118244 -9.80644788 38.69682686 -12.43359375 37.54296875 C-12.43359375 36.88296875 -12.43359375 36.22296875 -12.43359375 35.54296875 C-11.76972656 35.2284375 -11.10585937 34.91390625 -10.421875 34.58984375 C-0.25699203 29.79141273 -0.25699203 29.79141273 5.56640625 20.54296875 C5.49806645 16.57926034 5.17726917 14.371997 2.81640625 11.16796875 C0.34502468 9.38308206 -1.42778737 8.87694724 -4.43359375 8.54296875 C-4.43359375 9.20296875 -4.43359375 9.86296875 -4.43359375 10.54296875 C-6.74359375 10.21296875 -9.05359375 9.88296875 -11.43359375 9.54296875 C-12.24609375 7.85546875 -12.24609375 7.85546875 -12.43359375 5.54296875 C-9.10267389 0.4891593 -5.73276901 -0.31611394 0 0 Z " fill="#C7284A" transform="translate(96.43359375,32.45703125)"/>
<path d="M0 0 C1.35931641 0.50660156 1.35931641 0.50660156 2.74609375 1.0234375 C9.45077605 3.47827356 15.99246419 5.57473848 23 7 C24 8 24 8 24.0625 11.5625 C24.041875 12.696875 24.02125 13.83125 24 15 C14.33675525 15.65513524 5.44324779 13.29209017 -2.8125 8.1875 C-7.2575406 5.48754941 -10.01003509 5.82055375 -15 7 C-13.68 5.02 -12.36 3.04 -11 1 C-9.02 1.66 -7.04 2.32 -5 3 C-5 3.66 -5 4.32 -5 5 C-1.35206816 6.27253436 2.1936543 7.32829194 6 8 C6.33 7.34 6.66 6.68 7 6 C5.68 6.33 4.36 6.66 3 7 C3 6.01 3 5.02 3 4 C2.01 3.34 1.02 2.68 0 2 C0 1.34 0 0.68 0 0 Z " fill="#CD244B" transform="translate(99,16)"/>
<path d="M0 0 C5.61137128 1.21096462 9.2770055 4.83027817 12.6328125 9.3046875 C13.096875 10.4184375 13.096875 10.4184375 13.5703125 11.5546875 C13.2403125 12.2146875 12.9103125 12.8746875 12.5703125 13.5546875 C11.9103125 13.5546875 11.2503125 13.5546875 10.5703125 13.5546875 C10.5703125 12.8946875 10.5703125 12.2346875 10.5703125 11.5546875 C9.9103125 11.5546875 9.2503125 11.5546875 8.5703125 11.5546875 C8.62251953 12.49441406 8.62251953 12.49441406 8.67578125 13.453125 C8.70285156 14.27039062 8.72992188 15.08765625 8.7578125 15.9296875 C8.81001953 17.14785156 8.81001953 17.14785156 8.86328125 18.390625 C8.76660156 19.10476562 8.66992188 19.81890625 8.5703125 20.5546875 C7.5803125 21.2146875 6.5903125 21.8746875 5.5703125 22.5546875 C5.54453125 21.95140625 5.51875 21.348125 5.4921875 20.7265625 C5.14420098 15.57187408 5.14420098 15.57187408 2.8203125 11.0546875 C0.35699914 9.41247859 -1.50443569 8.87971548 -4.4296875 8.5546875 C-4.4296875 9.2146875 -4.4296875 9.8746875 -4.4296875 10.5546875 C-6.7396875 10.2246875 -9.0496875 9.8946875 -11.4296875 9.5546875 C-12.2421875 7.8671875 -12.2421875 7.8671875 -12.4296875 5.5546875 C-9.09686109 0.49798535 -5.7322787 -0.29089175 0 0 Z " fill="#D8375A" transform="translate(96.4296875,32.4453125)"/>
<path d="M0 0 C7.26058884 0.69734469 12.4245261 2.78207349 17.875 7.6875 C19.68186325 11.4016078 19.77242541 14.96461868 19 19 C15.31556473 23.84240065 11.15907073 26.61065938 5.1875 27.6875 C3.6096875 27.8421875 3.6096875 27.8421875 2 28 C2.33 27.34 2.66 26.68 3 26 C4.3921875 25.566875 4.3921875 25.566875 5.8125 25.125 C9.21440483 23.92432771 10.58371327 22.58887864 13 20 C13.66 20 14.32 20 15 20 C15.96070434 17.11788698 16.10581883 15.30149956 16.0625 12.3125 C16.05347656 11.50425781 16.04445313 10.69601563 16.03515625 9.86328125 C16.02355469 9.24839844 16.01195313 8.63351563 16 8 C14.68 8.33 13.36 8.66 12 9 C12.20625 10.27875 12.4125 11.5575 12.625 12.875 C12.9765625 15.0546875 12.9765625 15.0546875 13 17 C12.34 17.66 11.68 18.32 11 19 C9.68 19 8.36 19 7 19 C7 17.02 7 15.04 7 13 C7.33 14.32 7.66 15.64 8 17 C8.66 17 9.32 17 10 17 C10.13440778 14.57080135 10.13440778 14.57080135 9 12 C6.28161033 10.76003278 3.83150944 9.8596521 1 9 C-0.50383364 8.44783097 -2.00409351 7.8857975 -3.5 7.3125 C-5.2325 6.6628125 -5.2325 6.6628125 -7 6 C-7 5.34 -7 4.68 -7 4 C-4.67358362 4.51698142 -2.68370057 5.14233474 -0.5 6.125 C2.23361013 7.08176354 3.38614189 7.21357698 6 6 C6.33 5.01 6.66 4.02 7 3 C5.02 3.33 3.04 3.66 1 4 C1 3.34 1 2.68 1 2 C0.34 1.67 -0.32 1.34 -1 1 C-0.67 0.67 -0.34 0.34 0 0 Z " fill="#D4234B" transform="translate(72,101)"/>
<path d="M0 0 C5.75 -0.125 5.75 -0.125 8 1 C8 6.94 8 12.88 8 19 C3 20 3 20 0 18 C-0.34057617 16.12060547 -0.34057617 16.12060547 -0.29296875 13.8671875 C-0.28330078 13.06152344 -0.27363281 12.25585938 -0.26367188 11.42578125 C-0.23853516 10.58402344 -0.21339844 9.74226563 -0.1875 8.875 C-0.17396484 8.02550781 -0.16042969 7.17601563 -0.14648438 6.30078125 C-0.11108219 4.20025163 -0.05727401 2.10004707 0 0 Z " fill="#CF2A50" transform="translate(72,80)"/>
<path d="M0 0 C2.47960136 0.14024219 4.95852402 0.2869185 7.4375 0.4375 C8.14455078 0.47681641 8.85160156 0.51613281 9.58007812 0.55664062 C14.88671875 0.88671875 14.88671875 0.88671875 16 2 C16.125 5.5 16.125 5.5 16 9 C15 10 15 10 12.5078125 10.0546875 C4.98806581 9.65525523 -1.91697046 8.48047541 -9.1875 6.5625 C-10.4257251 6.23644775 -10.4257251 6.23644775 -11.68896484 5.90380859 C-15.29703228 4.90767963 -17.8414521 4.1056986 -21 2 C-18.03 2 -15.06 2 -12 2 C-12 2.66 -12 3.32 -12 4 C-6.72 4.99 -1.44 5.98 4 7 C4 5.35 4 3.7 4 2 C2.68 1.34 1.36 0.68 0 0 Z " fill="#D1345B" transform="translate(133,15)"/>
<path d="M0 0 C0.99 0 1.98 0 3 0 C3.33 1.32 3.66 2.64 4 4 C1.69 3.67 -0.62 3.34 -3 3 C-3.33 3.99 -3.66 4.98 -4 6 C-6.64 6.33 -9.28 6.66 -12 7 C-12 7.66 -12 8.32 -12 9 C-16.29 9 -20.58 9 -25 9 C-25 7.35 -25 5.7 -25 4 C-21.51088401 2.25544201 -17.50258205 2.53762734 -13.65234375 2.28125 C-11.07994595 2.28948002 -11.07994595 2.28948002 -10 1 C-8.31391034 0.92794489 -6.62499341 0.91613932 -4.9375 0.9375 C-4.01839844 0.94652344 -3.09929688 0.95554687 -2.15234375 0.96484375 C-1.44207031 0.97644531 -0.73179688 0.98804688 0 1 C0 0.67 0 0.34 0 0 Z " fill="#DF1E48" transform="translate(30,14)"/>
<path d="M0 0 C2.31 0.66 4.62 1.32 7 2 C7 4.66666667 7 7.33333333 7 10 C7.66 10.33 8.32 10.66 9 11 C8.34 11 7.68 11 7 11 C7.33 13.64 7.66 16.28 8 19 C4.15903871 18.12705425 2.29830018 17.3297002 -0.375 14.375 C-2.44892907 10.06760885 -2.46581983 7.73583497 -2 3 C-1.34 2.01 -0.68 1.02 0 0 Z " fill="#C82C50" transform="translate(63,108)"/>
<path d="M0 0 C1.65 0.33 3.3 0.66 5 1 C5.28571429 8.42857143 5.28571429 8.42857143 3 12 C5.475 12.99 5.475 12.99 8 14 C8.33 13.01 8.66 12.02 9 11 C9.33 11.66 9.66 12.32 10 13 C3.05263158 21.68421053 3.05263158 21.68421053 -1.4375 22.375 C-4.52555054 21.92309016 -6.44564719 20.75155621 -9 19 C-7.8271573 15.48147191 -7.16913123 15.25274673 -4.0625 13.5 C-1.03307774 11.78461026 -0.00510078 11.00765117 2 8 C1.69814573 5.04182816 1.33281171 2.66562342 0 0 Z " fill="#D7204D" transform="translate(91,83)"/>
<path d="M0 0 C5.12148626 0.51214863 9.78613418 2.01043303 14 5 C15.234375 7.13671875 15.234375 7.13671875 16 9 C17.65 9 19.3 9 21 9 C21.33 10.65 21.66 12.3 22 14 C16.17728663 14.59720137 12.0790596 12.528243 7 10 C6.67 10.66 6.34 11.32 6 12 C4.98829382 10.75945552 3.99102203 9.5071298 3 8.25 C2.443125 7.55390625 1.88625 6.8578125 1.3125 6.140625 C0 4 0 4 0 0 Z " fill="#DC1F47" transform="translate(58,95)"/>
<path d="M0 0 C4 2 4 2 5.8125 3.0625 C8.17700246 4.19101563 8.17700246 4.19101563 11.6875 4.5 C13.3271875 4.7475 13.3271875 4.7475 15 5 C15.33 5.66 15.66 6.32 16 7 C18.3140622 7.73075648 20.64828869 8.40138258 23 9 C22.67 10.32 22.34 11.64 22 13 C16.26650751 13.40953518 12.84635588 12.84738283 7.859375 9.97265625 C5.92065322 8.95849296 4.13422963 8.44856596 2 8 C2 7.01 2 6.02 2 5 C1.01 4.67 0.02 4.34 -1 4 C-0.67 2.68 -0.34 1.36 0 0 Z " fill="#E11D47" transform="translate(51,62)"/>
<path d="M0 0 C4.875 1.875 4.875 1.875 6 3 C6.41257648 8.98235897 5.67401588 12.65196824 3 18 C1.68 18 0.36 18 -1 18 C-1 17.34 -1 16.68 -1 16 C-1.66 16 -2.32 16 -3 16 C-3.33 14.35 -3.66 12.7 -4 11 C-3.01 10.34 -2.02 9.68 -1 9 C-0.83333333 5.5 -0.83333333 5.5 -1 2 C-0.67 1.34 -0.34 0.68 0 0 Z " fill="#E11D45" transform="translate(105,44)"/>
<path d="M0 0 C3.125 2.25 3.125 2.25 5 5 C5 6.32 5 7.64 5 9 C2.36 9.33 -0.28 9.66 -3 10 C-3 9.34 -3 8.68 -3 8 C-4.32 7.67 -5.64 7.34 -7 7 C-5.68 7 -4.36 7 -3 7 C-3.33 5.68 -3.66 4.36 -4 3 C-6.31 2.67 -8.62 2.34 -11 2 C-11 2.66 -11 3.32 -11 4 C-12.8125 5.6875 -12.8125 5.6875 -15 7 C-15.99 6.67 -16.98 6.34 -18 6 C-12.47686076 0.81627155 -7.67023979 -1.77612757 0 0 Z " fill="#DF1F4B" transform="translate(63,33)"/>
<path d="M0 0 C4.84436045 2.41812297 8.88682051 5.92836923 11 11 C10.67 11.66 10.34 12.32 10 13 C9.34 13 8.68 13 8 13 C8 12.34 8 11.68 8 11 C7.34 11 6.68 11 6 11 C6.05220703 11.93972656 6.05220703 11.93972656 6.10546875 12.8984375 C6.13253906 13.71570312 6.15960938 14.53296875 6.1875 15.375 C6.23970703 16.59316406 6.23970703 16.59316406 6.29296875 17.8359375 C6.19628906 18.55007812 6.09960938 19.26421875 6 20 C5.01 20.66 4.02 21.32 3 22 C2.95101562 21.39671875 2.90203125 20.7934375 2.8515625 20.171875 C2.77679688 19.37265625 2.70203125 18.5734375 2.625 17.75 C2.55539063 16.96109375 2.48578125 16.1721875 2.4140625 15.359375 C1.98492887 12.914123 1.21399362 11.15163097 0 9 C1.65 9.33 3.3 9.66 5 10 C4.96906827 7.58414426 4.96906827 7.58414426 4 5 C-0.67874276 1.69064536 -4.49736379 1.71538089 -10 2 C-10 2.66 -10 3.32 -10 4 C-11.32 4.33 -12.64 4.66 -14 5 C-11.18974097 -1.22271642 -6.32639096 -0.97897437 0 0 Z " fill="#CC2E51" transform="translate(99,33)"/>
<path d="M0 0 C3.33333333 0.66666667 6.66666667 1.33333333 10 2 C11.40185547 2.28037109 11.40185547 2.28037109 12.83203125 2.56640625 C13.54746094 2.70949219 14.26289063 2.85257813 15 3 C15 3.66 15 4.32 15 5 C17.475 5.495 17.475 5.495 20 6 C19.67 7.65 19.34 9.3 19 11 C13.1977825 11.36263859 9.36000789 10.25684543 4 8 C5.32 7.67 6.64 7.34 8 7 C8.33 7.66 8.66 8.32 9 9 C9.33 7.68 9.66 6.36 10 5 C8.35 4.67 6.7 4.34 5 4 C5 3.34 5 2.68 5 2 C3.35 2 1.7 2 0 2 C0 1.34 0 0.68 0 0 Z " fill="#D6254E" transform="translate(118,11)"/>
<path d="M0 0 C1.65 0.33 3.3 0.66 5 1 C3.7934375 1.804375 3.7934375 1.804375 2.5625 2.625 C-0.21051581 4.800289 -0.21051581 4.800289 -0.9375 8 C-1.0013887 11.0666578 -0.65560842 12.467893 1 15 C0.01 15 -0.98 15 -2 15 C-0.7508258 18.45925163 0.67527795 21.14693203 3 24 C2.67 24.66 2.34 25.32 2 26 C0.53154413 24.95153459 -0.92442099 23.88556239 -2.375 22.8125 C-3.18710937 22.22082031 -3.99921875 21.62914063 -4.8359375 21.01953125 C-7.20952387 18.80446961 -8.03610141 17.06646859 -9 14 C-8.34 14 -7.68 14 -7 14 C-7 14.99 -7 15.98 -7 17 C-6.34 16.67 -5.68 16.34 -5 16 C-4.6054783 13.32601961 -4.2784504 10.68468219 -4 8 C-3.43342446 4.60054676 -2.18724815 2.66273687 0 0 Z " fill="#CC2B50" transform="translate(60,80)"/>
<path d="M0 0 C1.65 0.33 3.3 0.66 5 1 C5 3.31 5 5.62 5 8 C-1.96327638 8.33693273 -7.43345544 7.3030887 -14 5 C-14 4.67 -14 4.34 -14 4 C-10.7 3.67 -7.4 3.34 -4 3 C-4 3.66 -4 4.32 -4 5 C-3.01 5 -2.02 5 -1 5 C-0.67 3.35 -0.34 1.7 0 0 Z " fill="#CC3E5E" transform="translate(118,23)"/>
<path d="M0 0 C1.65 0.66 3.3 1.32 5 2 C3.68 2.33 2.36 2.66 1 3 C-0.47075246 7.41225737 -1.36884358 10.48281619 0 15 C-0.433125 14.505 -0.86625 14.01 -1.3125 13.5 C-2.99740483 11.66781808 -2.99740483 11.66781808 -6 12 C-6.928125 12.495 -7.85625 12.99 -8.8125 13.5 C-14.46374932 16.10544611 -20.92905176 15.2273448 -27 15 C-27 14.67 -27 14.34 -27 14 C-25.83984375 13.96132813 -25.83984375 13.96132813 -24.65625 13.921875 C-16.70745992 13.48902009 -10.46988037 12.84805089 -4.95703125 6.734375 C-3.22461254 4.53513687 -1.57986515 2.31055277 0 0 Z " fill="#CA294E" transform="translate(97,2)"/>
<path d="M0 0 C2 3 2 3 3.5 5.8125 C6.4368355 10.31941294 11.37974295 12.51352579 16 15 C12.87365774 16.04211409 11.95151159 15.99926113 8.875 15.25 C8.17117187 15.09015625 7.46734375 14.9303125 6.7421875 14.765625 C6.16726562 14.51296875 5.59234375 14.2603125 5 14 C4.67 13.01 4.34 12.02 4 11 C3.34 10.67 2.68 10.34 2 10 C2 11.32 2 12.64 2 14 C2.66 14.33 3.32 14.66 4 15 C3.67 15.99 3.34 16.98 3 18 C0.5 16.3125 0.5 16.3125 -2 14 C-2.5 11.375 -2.5 11.375 -2 9 C-1.01 8.34 -0.02 7.68 1 7 C0.67 4.69 0.34 2.38 0 0 Z " fill="#CC2A4D" transform="translate(49,52)"/>
<path d="M0 0 C1.42944945 2.35438733 2.08661261 3.48032433 1.625 6.25 C1.41875 6.8275 1.2125 7.405 1 8 C1.99 8 2.98 8 4 8 C3.67 8.99 3.34 9.98 3 11 C0.33333333 9.66666667 -2.33333333 8.33333333 -5 7 C-5 7.99 -5 8.98 -5 10 C-5.66 10 -6.32 10 -7 10 C-7.33 10.99 -7.66 11.98 -8 13 C-9.32 13 -10.64 13 -12 13 C-12 11.02 -12 9.04 -12 7 C-9.36 6.67 -6.72 6.34 -4 6 C-4 5.34 -4 4.68 -4 4 C-2.68 3.67 -1.36 3.34 0 3 C0 2.01 0 1.02 0 0 Z " fill="#E21D47" transform="translate(53,2)"/>
<path d="M0 0 C0 0.66 0 1.32 0 2 C-1.7015625 2.2165625 -1.7015625 2.2165625 -3.4375 2.4375 C-6.80777201 2.61171478 -6.80777201 2.61171478 -8 4 C-10.34987262 4.23527773 -12.70556039 4.41386417 -15.0625 4.5625 C-16.35285156 4.64628906 -17.64320312 4.73007812 -18.97265625 4.81640625 C-19.97167969 4.87699219 -20.97070312 4.93757813 -22 5 C-22 6.65 -22 8.3 -22 10 C-17.71 10 -13.42 10 -9 10 C-9 10.33 -9 10.66 -9 11 C-11.31197155 11.19390729 -13.6246029 11.37996367 -15.9375 11.5625 C-17.22527344 11.66691406 -18.51304688 11.77132813 -19.83984375 11.87890625 C-20.88269531 11.91886719 -21.92554688 11.95882813 -23 12 C-24 11 -24 11 -24.125 7.5 C-24 4 -24 4 -23 3 C-20.58235747 2.6226119 -18.17806712 2.29264839 -15.75 2 C-10.45619937 1.35217289 -10.45619937 1.35217289 -5.203125 0.4375 C-3 0 -3 0 0 0 Z " fill="#BD3452" transform="translate(27,13)"/>
<path d="M0 0 C2.42233615 1.74105411 3.81559356 3.12529333 4.44140625 6.09375 C4.66269937 10.3768426 4.4680079 12.3849039 1.8125 15.875 C-3.2392538 19.69188065 -6.59199201 21.37176392 -13 22 C-12.67 21.34 -12.34 20.68 -12 20 C-10.6078125 19.566875 -10.6078125 19.566875 -9.1875 19.125 C-5.78559517 17.92432771 -4.41628673 16.58887864 -2 14 C-1.34 14 -0.68 14 0 14 C1.54799337 9.35601989 1.49594333 4.67482292 0 0 Z " fill="#CA2A4A" transform="translate(87,107)"/>
<path d="M0 0 C0 0.66 0 1.32 0 2 C-3.63 2.66 -7.26 3.32 -11 4 C-11 5.32 -11 6.64 -11 8 C-7.7 7.67 -4.4 7.34 -1 7 C-1 6.67 -1 6.34 -1 6 C1.31 6 3.62 6 6 6 C3.12924358 8.87075642 -0.20407585 9.006996 -4.0625 9.6875 C-4.80822266 9.82994141 -5.55394531 9.97238281 -6.32226562 10.11914062 C-8.20634525 10.46310067 -10.10287111 10.73738526 -12 11 C-13 10 -13 10 -13.09765625 8.15234375 C-13.06510417 6.1015625 -13.03255208 4.05078125 -13 2 C-11.39658445 1.66307215 -9.79223445 1.33058907 -8.1875 1 C-7.29417969 0.814375 -6.40085937 0.62875 -5.48046875 0.4375 C-3 0 -3 0 0 0 Z " fill="#BF3354" transform="translate(42,21)"/>
<path d="M0 0 C6.0546875 -0.1953125 6.0546875 -0.1953125 8 0 C10.40233858 2.40233858 10.26257468 2.98352302 10.31884766 6.26611328 C10.33871735 7.14687531 10.35858704 8.02763733 10.37905884 8.93508911 C10.39061005 9.88721283 10.40216125 10.83933655 10.4140625 11.8203125 C10.43342865 12.79410858 10.4527948 13.76790466 10.4727478 14.77120972 C10.53264558 17.88905003 10.57896971 21.00692706 10.625 24.125 C10.66317039 26.23569341 10.70222156 28.34637108 10.7421875 30.45703125 C10.83835527 35.63788144 10.92337264 40.81882597 11 46 C10.34 46 9.68 46 9 46 C9 31.81 9 17.62 9 3 C6.69 2.67 4.38 2.34 2 2 C1.34 1.34 0.68 0.68 0 0 Z " fill="#BC2E4E" transform="translate(63,21)"/>
<path d="M0 0 C1.98 0.66 3.96 1.32 6 2 C5.21625 2.763125 4.4325 3.52625 3.625 4.3125 C0.92742283 6.90891805 0.92742283 6.90891805 -1 10 C-1.66 9.34 -2.32 8.68 -3 8 C-5.06874034 7.3574765 -5.06874034 7.3574765 -7 7 C-7 9.64 -7 12.28 -7 15 C-7.66 15 -8.32 15 -9 15 C-9.34615998 9.34605369 -8.43425238 5.96993194 -6 1 C-5.34 1.99 -4.68 2.98 -4 4 C-3.34 3.67 -2.68 3.34 -2 3 C-2 3.66 -2 4.32 -2 5 C-1.01 5 -0.02 5 1 5 C0.67 3.35 0.34 1.7 0 0 Z " fill="#C9254C" transform="translate(50,39)"/>
<path d="M0 0 C0.33 1.32 0.66 2.64 1 4 C1.66 4 2.32 4 3 4 C3 4.66 3 5.32 3 6 C3.99 6.33 4.98 6.66 6 7 C4.68 8.32 3.36 9.64 2 11 C1.67 9.35 1.34 7.7 1 6 C-0.134375 6.61875 -1.26875 7.2375 -2.4375 7.875 C-3.07558594 8.22304687 -3.71367188 8.57109375 -4.37109375 8.9296875 C-6.16618315 9.91410024 -6.16618315 9.91410024 -7 12 C-8.65 11.67 -10.3 11.34 -12 11 C-9.4505484 8.96043872 -6.90268725 6.92531812 -4.3125 4.9375 C-1.81828913 3.03243982 -1.81828913 3.03243982 0 0 Z " fill="#C9284D" transform="translate(101,56)"/>
<path d="M0 0 C5.37927627 1.64366775 7.64659308 4.55097796 10.3125 9.375 C11.21403289 12.81721647 10.67813812 15.54149558 10 19 C9.67 19 9.34 19 9 19 C8.67 16.36 8.34 13.72 8 11 C7.34 11 6.68 11 6 11 C6 9.02 6 7.04 6 5 C4.02 5.66 2.04 6.32 0 7 C0 4.69 0 2.38 0 0 Z " fill="#C23154" transform="translate(92,75)"/>
<path d="M0 0 C2.47960136 0.14024219 4.95852402 0.2869185 7.4375 0.4375 C8.14455078 0.47681641 8.85160156 0.51613281 9.58007812 0.55664062 C14.88671875 0.88671875 14.88671875 0.88671875 16 2 C16.125 5.5 16.125 5.5 16 9 C15.67 9.33 15.34 9.66 15 10 C12.64305046 9.90968426 10.28846418 9.75311872 7.9375 9.5625 C6.64714844 9.46066406 5.35679687 9.35882813 4.02734375 9.25390625 C2.52880859 9.12822266 2.52880859 9.12822266 1 9 C1 8.67 1 8.34 1 8 C6.445 7.505 6.445 7.505 12 7 C12.33 5.68 12.66 4.36 13 3 C8.71 2.34 4.42 1.68 0 1 C0 0.67 0 0.34 0 0 Z " fill="#BF425F" transform="translate(133,15)"/>
<path d="M0 0 C1.98 0.66 3.96 1.32 6 2 C6 2.66 6 3.32 6 4 C6.9075 4.2475 7.815 4.495 8.75 4.75 C12.10351489 6.03981342 13.67708236 7.31971042 16 10 C12.52059169 9.57825354 10.69814118 8.80635472 7.6875 6.875 C3.55151199 4.3423906 0.63515791 5.02417728 -4 6 C-2.68 4.02 -1.36 2.04 0 0 Z " fill="#D32B50" transform="translate(88,17)"/>
<path d="M0 0 C0.33 1.32 0.66 2.64 1 4 C0.01 4.495 0.01 4.495 -1 5 C-1 7.97 -1 10.94 -1 14 C-1.99 14 -2.98 14 -4 14 C-4.33 14.99 -4.66 15.98 -5 17 C-6.37793266 11.48826935 -5.81244899 8.67341709 -3.10546875 3.69921875 C-2 2 -2 2 0 0 Z " fill="#CC294C" transform="translate(55,77)"/>
<path d="M0 0 C0.33 0 0.66 0 1 0 C1.33 4.95 1.66 9.9 2 15 C0.35 15 -1.3 15 -3 15 C-3.08142927 13.2507786 -3.13938541 11.50045458 -3.1875 9.75 C-3.22230469 8.77546875 -3.25710937 7.8009375 -3.29296875 6.796875 C-2.95979506 3.61617683 -2.17311382 2.2990121 0 0 Z " fill="#DF1E45" transform="translate(77,83)"/>
<path d="M0 0 C2.97 0.495 2.97 0.495 6 1 C6 3.31 6 5.62 6 8 C1.125 9 1.125 9 0 9 C0 6.03 0 3.06 0 0 Z " fill="#E21C48" transform="translate(63,110)"/>
<path d="M0 0 C1.32 0.33 2.64 0.66 4 1 C3.67 3.31 3.34 5.62 3 8 C0.69 7.67 -1.62 7.34 -4 7 C-4.33 5.68 -4.66 4.36 -5 3 C-3.35 2.67 -1.7 2.34 0 2 C0 1.34 0 0.68 0 0 Z " fill="#D5254B" transform="translate(89,35)"/>
<path d="M0 0 C0.66 0.33 1.32 0.66 2 1 C2 2.65 2 4.3 2 6 C-0.64738916 7.4606285 -1.89448334 8 -5 8 C-5 8.66 -5 9.32 -5 10 C-5.99 10 -6.98 10 -8 10 C-7.8125 7.125 -7.8125 7.125 -7 4 C-4.5625 2.75 -4.5625 2.75 -2 2 C-1.34 1.34 -0.68 0.68 0 0 Z " fill="#DE1E47" transform="translate(101,61)"/>
<path d="M0 0 C2.296875 1.53515625 2.296875 1.53515625 4 3 C3.67 3.66 3.34 4.32 3 5 C2.34 4.34 1.68 3.68 1 3 C-1.89223503 2.53603307 -1.89223503 2.53603307 -5.125 2.375 C-6.76855469 2.26285156 -6.76855469 2.26285156 -8.4453125 2.1484375 C-9.28835937 2.09945312 -10.13140625 2.05046875 -11 2 C-11 2.66 -11 3.32 -11 4 C-12.8125 5.6875 -12.8125 5.6875 -15 7 C-15.99 6.67 -16.98 6.34 -18 6 C-12.48786901 0.82660332 -7.65988953 -1.68048597 0 0 Z " fill="#BF2E4E" transform="translate(63,33)"/>
<path d="M0 0 C3.3 0 6.6 0 10 0 C10.33 1.32 10.66 2.64 11 4 C11.99 4.33 12.98 4.66 14 5 C14 5.66 14 6.32 14 7 C9 5.33333333 4 3.66666667 -1 2 C-0.67 1.34 -0.34 0.68 0 0 Z " fill="#CD284E" transform="translate(98,10)"/>
<path d="M0 0 C1.5625 1 1.5625 1 3 3 C2.96726452 5.76614782 2.49404328 8.26030547 2 11 C1.01 11.33 0.02 11.66 -1 12 C-1 11.01 -1 10.02 -1 9 C-1.66 9 -2.32 9 -3 9 C-3 6 -3 6 -1 4 C-0.3574765 1.93125966 -0.3574765 1.93125966 0 0 Z " fill="#E31E48" transform="translate(54,85)"/>
<path d="M0 0 C2.76262928 1.39349554 4.63943925 2.94733848 7 5 C4 5 4 5 1.3125 3.5 C-2.83557074 1.62162834 -5.4933614 1.766898 -10 2 C-10 2.66 -10 3.32 -10 4 C-11.32 4.33 -12.64 4.66 -14 5 C-11.1842324 -1.23491398 -6.33196268 -0.88704097 0 0 Z " fill="#BF3354" transform="translate(99,33)"/>
<path d="M0 0 C1.64826111 2.96687001 2.44271087 5.65626525 3 9 C1.68 9 0.36 9 -1 9 C-1 8.34 -1 7.68 -1 7 C-1.66 7 -2.32 7 -3 7 C-3.33 5.35 -3.66 3.7 -4 2 C-2.68 1.34 -1.36 0.68 0 0 Z " fill="#E41C43" transform="translate(105,53)"/>
<path d="M0 0 C0 2 0 2 -1.5 3.625 C-1.995 4.07875 -2.49 4.5325 -3 5 C-0.69 5.33 1.62 5.66 4 6 C3.67 6.66 3.34 7.32 3 8 C-1.27343092 8.36629408 -3.48812804 7.40814077 -7 5 C-6 2 -6 2 -4.0625 0.8125 C-2 0 -2 0 0 0 Z " fill="#C12F4D" transform="translate(89,97)"/>
<path d="M0 0 C1.65 0.33 3.3 0.66 5 1 C5.602537 7.02536998 5.602537 7.02536998 3.88671875 9.80078125 C2.65378147 11.25599455 1.33191067 12.63479157 0 14 C-0.66 13.67 -1.32 13.34 -2 13 C-0.9790625 11.948125 -0.9790625 11.948125 0.0625 10.875 C2.33133486 8.1355135 2.33133486 8.1355135 1.8125 4.8125 C1.11477076 2.07837033 1.11477076 2.07837033 0 0 Z " fill="#CB3252" transform="translate(91,83)"/>
<path d="M0 0 C0.66 0 1.32 0 2 0 C2.31563182 5.26053037 1.66590937 8.44573816 -1 13 C-2.53690745 10.58959839 -3.09752136 9.49917715 -2.5390625 6.640625 C-2.23742187 5.85171875 -1.93578125 5.0628125 -1.625 4.25 C-1.32851562 3.45078125 -1.03203125 2.6515625 -0.7265625 1.828125 C-0.48679687 1.22484375 -0.24703125 0.6215625 0 0 Z " fill="#C4254D" transform="translate(109,48)"/>
<path d="M0 0 C2.46235259 1.76981592 3.83710915 3.13229297 4.40625 6.1640625 C4.49953883 8.55070172 4.46181934 10.65537873 4 13 C2 15.0625 2 15.0625 0 16 C0.2475 14.9790625 0.2475 14.9790625 0.5 13.9375 C1.30431092 9.21217334 1.47312965 4.60353017 0 0 Z " fill="#C43A59" transform="translate(87,107)"/>
<path d="M0 0 C2.20516659 0.49003702 4.21515143 1.08722355 6.3125 1.9375 C9.48699869 3.19253437 12.71013905 4.09690092 16 5 C16 5.99 16 6.98 16 8 C10.66666667 6 5.33333333 4 0 2 C0 1.34 0 0.68 0 0 Z " fill="#C33353" transform="translate(65,105)"/>
<path d="M0 0 C1.98 0 3.96 0 6 0 C6 0.66 6 1.32 6 2 C6.66 2 7.32 2 8 2 C8.33 3.32 8.66 4.64 9 6 C7.35 6 5.7 6 4 6 C4.33 5.01 4.66 4.02 5 3 C3.35 2.67 1.7 2.34 0 2 C0 1.34 0 0.68 0 0 Z " fill="#E31F4A" transform="translate(109,23)"/>
<path d="M0 0 C-4.82646677 3.21764451 -10.19821824 4.36261136 -16 4 C-16 3.34 -16 2.68 -16 2 C-10.42932723 0.40837921 -5.78898419 -0.20674944 0 0 Z " fill="#C23253" transform="translate(34,19)"/>
<path d="M0 0 C0 0.66 0 1.32 0 2 C0.99 2.66 1.98 3.32 3 4 C-1.82360189 4.19294408 -5.49646738 3.75747614 -10 2 C-10 1.67 -10 1.34 -10 1 C-6.59437148 0.22157062 -3.49234244 -0.09978121 0 0 Z " fill="#D53454" transform="translate(114,26)"/>
<path d="M0 0 C1.65 0.33 3.3 0.66 5 1 C5 1.99 5 2.98 5 4 C4 5 4 5 1.4375 5.0625 C0.2309375 5.0315625 0.2309375 5.0315625 -1 5 C-0.67 3.35 -0.34 1.7 0 0 Z " fill="#DE224C" transform="translate(141,18)"/>
<path d="M0 0 C2.21484375 0.26953125 2.21484375 0.26953125 4.9375 0.8125 C5.83339844 0.98394531 6.72929688 1.15539062 7.65234375 1.33203125 C10 2 10 2 12 4 C8.37 4 4.74 4 1 4 C1 3.34 1 2.68 1 2 C0.34 1.67 -0.32 1.34 -1 1 C-0.67 0.67 -0.34 0.34 0 0 Z " fill="#C62449" transform="translate(72,101)"/>
<path d="M0 0 C0.33 1.98 0.66 3.96 1 6 C-0.98 5.34 -2.96 4.68 -5 4 C-5 3.01 -5 2.02 -5 1 C-2 0 -2 0 0 0 Z " fill="#D72B54" transform="translate(90,77)"/>
<path d="M0 0 C4.99911924 0.47610659 7.97832683 2.03162219 12 5 C9 6 9 6 6.73828125 5.00390625 C5.93777344 4.52824219 5.13726562 4.05257813 4.3125 3.5625 C3.50425781 3.08941406 2.69601563 2.61632812 1.86328125 2.12890625 C1.24839844 1.75636719 0.63351563 1.38382813 0 1 C0 0.67 0 0.34 0 0 Z " fill="#C73356" transform="translate(92,21)"/>
<path d="M0 0 C0.66 0 1.32 0 2 0 C2.66 1.98 3.32 3.96 4 6 C1.03 5.505 1.03 5.505 -2 5 C-1.125 1.125 -1.125 1.125 0 0 Z " fill="#E41D46" transform="translate(47,55)"/>
<path d="M0 0 C0.99 0.66 1.98 1.32 3 2 C2.67 3.65 2.34 5.3 2 7 C0.02 6.01 -1.96 5.02 -4 4 C-3.34 3.67 -2.68 3.34 -2 3 C-1.34 3.33 -0.68 3.66 0 4 C-0.33 3.01 -0.66 2.02 -1 1 C-0.67 0.67 -0.34 0.34 0 0 Z " fill="#E6345A" transform="translate(102,37)"/>
<path d="M0 0 C1.27118864 0.79109602 2.54193623 1.58290078 3.8125 2.375 C4.52019531 2.81585938 5.22789063 3.25671875 5.95703125 3.7109375 C7.65432039 4.78188476 9.33014358 5.88676239 11 7 C8.03 6.67 5.06 6.34 2 6 C1.34 4.02 0.68 2.04 0 0 Z " fill="#C82E52" transform="translate(59,9)"/>
<path d="M0 0 C2.475 0.99 2.475 0.99 5 2 C5 2.99 5 3.98 5 5 C3.35 5.66 1.7 6.32 0 7 C0 4.69 0 2.38 0 0 Z " fill="#CF264E" transform="translate(92,75)"/>
<path d="M0 0 C2 1.3125 2 1.3125 4 3 C4 3.99 4 4.98 4 6 C2.02 5.34 0.04 4.68 -2 4 C-2 3.01 -2 2.02 -2 1 C-1.34 0.67 -0.68 0.34 0 0 Z " fill="#DC1E48" transform="translate(98,35)"/>
<path d="M0 0 C2.52588702 2.36292656 3.88820837 3.66462511 5 7 C3.35 7.33 1.7 7.66 0 8 C0 5.36 0 2.72 0 0 Z " fill="#CD284D" transform="translate(54,2)"/>
<path d="M0 0 C7.625 0.875 7.625 0.875 11 2 C10.67 2.99 10.34 3.98 10 5 C9.34 5 8.68 5 8 5 C8 4.34 8 3.68 8 3 C7.4225 2.87625 6.845 2.7525 6.25 2.625 C3.97664233 1.99351176 2.0746471 1.11141809 0 0 Z " fill="#C43053" transform="translate(57,76)"/>
<path d="M0 0 C0.33 1.32 0.66 2.64 1 4 C-1.64 4.33 -4.28 4.66 -7 5 C-7 4.34 -7 3.68 -7 3 C-8.32 2.67 -9.64 2.34 -11 2 C-7.37 2.33 -3.74 2.66 0 3 C0 2.01 0 1.02 0 0 Z " fill="#BC2A4D" transform="translate(67,38)"/>
<path d="M0 0 C1.27875 -0.061875 2.5575 -0.12375 3.875 -0.1875 C4.95394531 -0.23970703 4.95394531 -0.23970703 6.0546875 -0.29296875 C6.69664063 -0.19628906 7.33859375 -0.09960938 8 0 C8.66 0.99 9.32 1.98 10 3 C2.25 2.25 2.25 2.25 0 0 Z " fill="#CE2B53" transform="translate(63,21)"/>
<path d="M0 0 C2.97 0.495 2.97 0.495 6 1 C6 2.65 6 4.3 6 6 C5.34 6 4.68 6 4 6 C4 5.01 4 4.02 4 3 C2.68 2.67 1.36 2.34 0 2 C0 1.34 0 0.68 0 0 Z " fill="#DA234E" transform="translate(63,110)"/>
<path d="M0 0 C-0.33 0.99 -0.66 1.98 -1 3 C-3.97 3 -6.94 3 -10 3 C-4 0 -4 0 0 0 Z " fill="#C12D4D" transform="translate(37,10)"/>
</svg>
